<svg xmlns="http://www.w3.org/2000/svg" viewBox="0 0 256 256" role="img" aria-label="COSMO CONSULT">
  <path fill="#B39C4D" d="m216.99,160.32l-66.09-96.72c-5.3-7.75-14.08-12.39-23.47-12.39s-18.17,4.64-23.47,12.39l-66.09,96.71c-5.95,8.7-6.59,19.98-1.67,29.3,4.92,9.32,14.6,15.16,25.14,15.16h132.18c10.54,0,20.22-5.83,25.14-15.16,4.92-9.32,4.28-20.6-1.67-29.3Zm-25.87-2.2c-2.03,8.26-8.46,14.72-16.71,16.78l-75.73,18.93c-8.25,2.06-16.97-.61-22.64-6.95-5.68-6.33-7.38-15.29-4.43-23.27l24.02-64.88c2.63-7.1,8.6-12.45,15.95-14.29,7.35-1.84,15.13.07,20.8,5.11l51.72,45.95c6.36,5.65,9.07,14.35,7.04,22.61Z"/>
  <circle fill="#B39C4D" cx="212.4" cy="80.01" r="19.2"/>
</svg>
